<svg version="1.0" xmlns="http://www.w3.org/2000/svg"
 width="640.000000pt" height="640.000000pt" viewBox="0 0 640.000000 640.000000"
 preserveAspectRatio="xMidYMid meet">

<g transform="translate(0.000000,640.000000) scale(0.100000,-0.100000)"
fill="#000000" stroke="none">
<path d="M2880 5874 c-901 -107 -1689 -668 -2090 -1489 -201 -411 -291 -830
-277 -1289 8 -266 51 -526 126 -765 11 -35 17 -69 14 -77 -4 -10 -23 -14 -63
-14 -73 0 -85 -13 -85 -91 0 -74 15 -90 83 -92 41 -2 53 -6 61 -23 11 -26 74
-34 267 -34 l134 0 0 -24 c0 -13 3 -32 6 -41 6 -14 1 -13 -27 4 -57 35 -61 24
-10 -24 36 -33 54 -62 71 -108 28 -77 80 -159 116 -183 15 -11 90 -83 166
-161 206 -210 334 -314 539 -438 284 -171 610 -284 979 -336 119 -18 460 -15
595 4 535 75 1027 315 1400 683 50 49 142 143 205 209 104 108 118 128 150
204 22 53 50 101 76 128 46 49 43 54 -10 18 l-37 -25 7 37 c4 21 9 41 11 46 2
4 79 7 171 8 187 1 213 5 227 37 8 19 18 22 67 22 69 0 78 11 78 94 0 73 -14
86 -91 86 -68 0 -70 5 -44 81 90 252 137 553 138 869 1 607 -182 1157 -550
1648 -115 154 -354 393 -508 508 -488 365 -1028 546 -1615 543 -91 -1 -217 -7
-280 -15z m675 -98 c828 -132 1538 -654 1916 -1406 187 -372 273 -742 273
-1175 0 -296 -27 -495 -100 -746 -18 -65 -34 -129 -34 -142 0 -23 -2 -24 -47
-19 -52 5 -63 14 -63 50 0 55 -13 62 -113 62 l-92 0 -23 88 c-22 85 -23 91 -8
143 54 187 81 566 57 789 -63 579 -345 1110 -776 1465 -337 277 -718 442
-1133 490 -134 16 -138 17 -189 56 l-53 40 -53 -40 c-48 -37 -60 -41 -147 -51
-463 -54 -848 -224 -1207 -532 -351 -302 -615 -756 -707 -1220 -64 -319 -58
-672 15 -962 l20 -80 -20 -65 c-11 -36 -22 -78 -26 -94 -5 -27 -5 -27 -94 -27
-100 0 -107 -4 -117 -67 -6 -40 -7 -41 -50 -45 l-43 -3 -31 110 c-84 307 -105
458 -105 785 0 296 11 399 70 640 103 417 323 829 606 1135 432 467 955 740
1587 830 131 19 548 13 687 -9z m-334 -389 c40 -30 54 -34 157 -45 383 -42
727 -176 1040 -406 135 -99 375 -339 462 -463 380 -541 500 -1161 352 -1821
l-7 -32 -35 47 c-63 84 -58 82 -317 105 -107 9 -115 9 -158 -12 -105 -51 -197
-241 -220 -453 -10 -91 -29 -88 -45 8 -11 65 -11 85 3 148 9 39 19 92 23 117
3 25 17 92 30 150 29 128 30 189 4 272 -11 34 -20 87 -20 116 0 57 -18 101
-57 144 -40 42 -75 135 -83 218 -5 54 -16 92 -39 137 -17 34 -31 64 -31 67 0
3 -13 27 -30 54 -27 44 -28 52 -19 88 15 53 6 142 -21 193 -30 59 -99 124
-168 158 -50 24 -68 28 -149 28 l-91 0 -22 32 c-41 60 -165 167 -251 217 -126
74 -119 64 -119 174 0 76 3 97 16 107 20 14 54 100 54 136 0 31 -17 50 -38 42
-13 -6 -14 6 -9 91 11 161 -19 211 -172 291 -45 23 -91 36 -91 25 0 -9 -73
-21 -136 -22 -39 0 -43 -3 -49 -32 -4 -17 -9 -25 -12 -18 -8 21 -30 13 -42
-16 -7 -16 -11 -49 -11 -73 1 -24 -3 -64 -9 -89 -5 -25 -7 -72 -4 -104 5 -51
4 -59 -9 -53 -21 8 -38 -12 -38 -44 0 -39 40 -139 56 -139 11 0 14 -23 14
-103 l0 -102 -101 -60 c-106 -62 -212 -152 -261 -219 l-28 -39 -88 -2 c-143
-2 -254 -62 -319 -172 -30 -51 -43 -169 -25 -221 8 -24 7 -35 -10 -58 -49 -72
-110 -220 -115 -279 -6 -75 -45 -178 -84 -223 -39 -44 -49 -71 -49 -135 -1
-29 -9 -77 -20 -107 -26 -74 -25 -150 4 -278 14 -59 30 -143 36 -187 6 -44 16
-97 21 -118 7 -27 6 -57 -6 -112 -8 -41 -15 -77 -15 -80 0 -3 -4 -5 -9 -5 -5
0 -12 26 -15 58 -27 227 -124 425 -232 477 -39 18 -100 17 -302 -7 -101 -12
-134 -29 -169 -89 -10 -16 -20 -29 -24 -29 -9 0 -46 198 -60 324 -17 143 -6
442 20 590 107 604 452 1122 976 1466 111 72 339 182 468 225 127 42 301 80
445 96 91 10 108 16 150 45 26 19 50 34 53 34 3 0 26 -15 50 -33z m119 -220
c-1 -18 -4 -15 -16 13 -8 19 -20 42 -27 50 -7 9 0 3 16 -12 15 -16 27 -38 27
-51z m-80 38 c29 -15 60 -51 60 -70 -1 -5 -7 2 -15 16 -8 15 -34 36 -57 48
-24 11 -37 21 -30 21 7 0 26 -7 42 -15z m-11 -33 c13 -10 31 -29 39 -42 14
-22 12 -22 -13 4 -15 15 -46 37 -69 48 -35 16 -36 18 -11 13 17 -3 41 -14 54
-23z m108 -4 c-3 -8 -6 -5 -6 6 -1 11 2 17 5 13 3 -3 4 -12 1 -19z m-118 -27
c17 -12 31 -27 31 -33 0 -5 -14 2 -30 16 -17 14 -47 28 -68 31 -64 11 -69 14
-16 11 33 -2 62 -11 83 -25z m-69 -7 c22 -9 40 -23 40 -31 0 -12 -3 -13 -14
-3 -8 6 -36 20 -63 30 -31 13 -40 19 -26 20 13 0 41 -7 63 -16z m-27 -32 c11
-9 23 -26 29 -37 6 -13 1 -10 -14 7 -12 15 -39 35 -58 43 -33 15 -34 16 -5 10
17 -4 38 -14 48 -23z m271 10 c2 -4 -5 -9 -17 -9 -17 -2 -19 0 -7 7 18 12 18
12 24 2z m-14 -32 c0 -5 -11 -12 -24 -16 -22 -5 -23 -7 -10 -42 7 -20 13 -50
14 -67 0 -16 5 -47 11 -69 16 -56 4 -98 -42 -150 -39 -44 -37 -65 3 -29 17 15
18 15 18 -8 -1 -13 -13 -47 -29 -76 l-28 -52 -14 32 c-11 25 -24 35 -61 47
-45 14 -66 40 -33 40 8 0 15 5 15 10 0 13 -27 13 -35 0 -4 -7 -12 -7 -25 0
-24 13 -50 13 -50 0 0 -5 9 -10 19 -10 40 0 30 -19 -18 -35 -53 -17 -67 -28
-73 -60 -3 -16 -11 -8 -36 35 -17 30 -32 63 -32 73 0 17 2 17 22 3 37 -26 41
-18 10 22 -52 66 -54 74 -46 193 4 65 11 112 18 115 15 6 137 -21 165 -36 19
-9 26 -9 40 4 10 9 23 16 30 16 6 0 29 12 51 26 24 16 48 24 60 21 12 -3 33 1
48 9 32 17 32 17 32 4z m-484 -194 c3 -8 4 -31 2 -52 l-3 -39 -16 25 c-10 14
-20 36 -24 50 l-8 25 21 -25 c21 -24 21 -25 22 -3 0 12 -6 24 -12 26 -10 4
-10 6 0 6 7 1 15 -5 18 -13z m550 0 c7 -17 -22 -86 -35 -86 -6 0 -11 6 -11 14
0 25 12 46 26 46 17 0 19 27 2 33 -10 4 -10 6 0 6 7 1 15 -5 18 -13z m-539
-132 c-9 -9 -28 6 -21 18 4 6 10 6 17 -1 6 -6 8 -13 4 -17z m503 6 c-6 -11
-13 -20 -15 -20 -3 0 -5 9 -5 20 0 11 7 20 15 20 13 0 14 -4 5 -20z m-215
-130 c11 -1 -7 -6 -40 -10 -65 -9 -82 -5 -44 8 22 8 32 9 84 2z m15 -37 c-22
-9 -51 -13 -79 -10 -32 3 -40 2 -28 -5 9 -5 17 -20 17 -34 0 -22 -4 -25 -27
-22 -23 2 -29 8 -31 35 -4 37 4 41 98 46 30 2 62 4 70 4 8 1 -1 -5 -20 -14z
m30 -25 c0 -13 -4 -28 -8 -35 -8 -13 -52 -14 -52 -2 0 4 -3 14 -6 22 -3 10 4
18 23 25 41 15 43 14 43 -10z m-168 -206 c39 -78 47 -112 27 -112 -7 0 -10
-14 -7 -35 6 -51 -21 -42 -37 12 -7 23 -24 62 -38 85 -27 47 -67 167 -67 202
0 33 76 -61 122 -152z m263 79 c-8 -33 -33 -97 -55 -143 -22 -45 -40 -87 -40
-94 0 -13 -29 -28 -38 -19 -3 2 -1 31 5 64 5 33 6 58 1 55 -4 -3 -8 -12 -8
-20 0 -8 -4 -14 -10 -14 -15 0 -13 6 30 77 22 37 40 71 40 76 0 4 19 31 43 58
48 57 55 49 32 -40z m302 -97 c24 -22 43 -50 43 -61 0 -40 -65 -45 -113 -9
-91 67 -100 68 -54 4 26 -35 10 -58 -39 -58 -27 0 -36 6 -49 29 -11 23 -67 74
-92 86 -2 1 4 19 12 41 8 21 19 58 25 80 l10 41 107 -56 c60 -31 127 -74 150
-97z m-695 69 c16 -49 22 -79 16 -82 -21 -7 -88 -74 -88 -86 0 -27 -70 -34
-90 -10 -11 13 -9 21 9 46 13 17 20 33 18 36 -3 2 -31 -11 -61 -31 -31 -20
-65 -36 -75 -36 -108 0 -39 96 134 187 55 29 103 53 106 53 3 0 17 -35 31 -77z
m278 -13 c-33 -26 -110 -27 -140 -2 -21 17 -21 18 48 14 38 -2 78 1 88 6 29
16 32 3 4 -18z m-192 -164 c-2 -17 -9 -21 -33 -19 -53 4 -67 49 -22 71 18 8
25 6 40 -11 10 -11 17 -30 15 -41z m303 54 c24 -14 24 -42 0 -64 -29 -26 -56
-17 -54 18 2 25 18 56 30 56 2 0 13 -5 24 -10z m-651 -93 c19 -7 33 -16 32
-22 -6 -17 -115 -105 -155 -126 -22 -11 -37 -22 -35 -24 13 -13 85 22 142 69
92 76 137 91 266 90 80 0 119 -6 161 -21 l56 -21 84 25 c70 21 98 24 169 19
106 -6 149 -20 201 -64 31 -27 37 -37 27 -44 -10 -7 -10 -8 2 -6 8 2 31 -7 50
-19 33 -20 100 -40 100 -30 0 3 -19 15 -42 26 -41 20 -148 115 -148 131 0 14
89 32 127 25 62 -11 178 -82 231 -140 83 -91 110 -170 72 -218 -41 -52 -123
-34 -250 54 -30 22 -71 42 -90 45 -33 5 -33 4 15 -20 l50 -26 -45 5 c-48 6
-48 6 18 -44 37 -29 42 -37 42 -72 0 -66 -42 -124 -120 -165 -49 -26 -213 -27
-287 -1 -180 63 -226 222 -89 309 l31 19 -35 -7 c-66 -13 -65 -14 -68 55 -2
53 1 70 17 92 30 40 8 45 -29 7 -28 -28 -33 -30 -42 -15 -8 16 -58 47 -74 47
-4 0 4 -12 19 -27 20 -22 26 -39 28 -78 4 -92 2 -98 -26 -91 -79 19 -82 19
-39 -8 42 -26 74 -76 74 -115 0 -80 -78 -158 -193 -193 -83 -25 -211 -22 -268
7 -76 38 -119 98 -119 164 0 37 5 44 49 78 28 21 50 41 50 44 1 4 -16 3 -36
-2 -53 -11 -54 -3 -2 21 24 11 36 20 26 20 -23 0 -87 -33 -125 -65 -52 -43
-138 -78 -177 -71 -70 13 -85 86 -35 172 45 79 112 139 203 184 86 42 126 48
187 27z m-245 -38 c-79 -40 -136 -97 -190 -189 l-45 -75 0 51 c0 88 44 195 73
177 6 -3 7 -1 3 5 -16 27 72 59 164 61 l55 1 -60 -31z m1517 21 c51 -15 97
-56 120 -107 18 -40 37 -173 25 -173 -3 0 -21 28 -40 63 -50 89 -107 149 -176
186 -34 18 -61 34 -61 37 0 8 95 4 132 -6z m-1762 -485 c21 -22 25 -35 24 -83
-1 -132 -102 -192 -155 -92 -27 50 -24 161 4 143 6 -4 7 -1 2 6 -4 7 2 23 16
37 29 31 71 27 109 -11z m2027 8 c48 -52 57 -124 23 -181 -56 -92 -144 -52
-157 72 -7 65 10 100 60 121 43 19 44 19 74 -12z m-1775 -87 c-1 -49 -9 -116
-16 -150 -19 -81 -67 -185 -101 -218 -65 -65 -155 -11 -155 93 0 16 23 72 50
125 45 87 50 101 44 143 -8 64 8 81 82 91 104 14 99 18 96 -84z m1515 84 c23
0 42 -8 59 -25 22 -22 24 -31 19 -69 -6 -39 -2 -53 39 -131 35 -66 46 -98 46
-131 0 -103 -75 -157 -143 -104 -33 26 -83 133 -108 229 -19 73 -26 221 -12
235 5 4 21 5 37 2 16 -3 44 -6 63 -6z m-889 -136 c53 -37 71 -139 30 -168 -12
-9 -37 -16 -56 -16 -18 0 -54 -11 -80 -25 -59 -31 -75 -31 -129 0 -47 28 -53
47 -28 95 9 18 11 30 5 30 -6 0 31 22 82 49 99 52 140 61 176 35z m318 -29
c45 -25 90 -45 101 -45 14 0 15 -2 4 -9 -11 -7 -11 -13 3 -32 24 -35 20 -63
-15 -88 -49 -36 -99 -39 -145 -7 -24 16 -52 26 -76 26 -50 0 -68 8 -79 37 -22
59 40 163 97 163 15 0 64 -20 110 -45z m-678 -88 c14 -15 19 -30 15 -45 -5
-22 -7 -21 -38 15 -22 26 -29 40 -21 45 17 11 21 10 44 -15z m922 13 c0 -15
-47 -80 -54 -73 -12 12 -6 46 11 65 17 19 43 24 43 8z m-1516 -31 c24 -19 26
-26 26 -95 0 -100 -23 -144 -76 -144 -7 0 -16 11 -20 25 -3 14 -10 25 -14 25
-15 0 7 -56 57 -147 l48 -88 0 -100 c0 -99 -1 -101 -47 -199 -34 -68 -48 -110
-48 -139 l0 -42 -27 40 c-15 21 -28 35 -30 29 -3 -8 15 -51 85 -196 2 -5 -6
-8 -17 -8 -12 0 -21 -4 -21 -9 0 -6 15 -8 33 -5 22 4 46 -2 77 -18 37 -19 50
-34 75 -85 17 -34 36 -68 43 -75 22 -22 14 -38 -19 -38 -23 0 -40 9 -63 35
l-32 35 -100 0 c-64 0 -104 4 -112 12 -27 27 -4 118 30 118 11 0 17 4 13 9 -3
6 2 14 12 19 15 9 13 14 -19 51 -36 42 -58 98 -58 145 l0 26 21 -21 c30 -30
31 -20 3 37 -23 47 -24 52 -10 98 8 26 22 56 31 66 28 31 30 85 6 126 -12 20
-26 60 -32 87 -5 28 -21 66 -35 85 -22 28 -26 41 -22 81 7 74 62 131 125 131
35 0 46 -8 66 -45 14 -25 16 -27 17 -9 0 11 -16 37 -36 57 -31 30 -35 41 -29
64 6 27 51 83 66 83 3 0 18 -9 33 -21z m2128 9 c24 -20 48 -61 48 -82 0 -10
-18 -36 -40 -56 -37 -35 -53 -70 -30 -70 6 0 10 8 10 17 0 55 86 72 140 27 65
-55 78 -125 34 -189 -14 -21 -29 -60 -33 -86 -4 -25 -17 -59 -29 -74 -30 -38
-28 -90 3 -135 15 -22 28 -58 32 -88 5 -45 2 -57 -21 -92 -28 -43 -24 -50 12
-24 l23 16 -7 -38 c-10 -58 -32 -106 -62 -137 l-27 -28 33 -27 c41 -35 58 -87
37 -119 -14 -21 -22 -23 -113 -23 l-98 0 -34 -35 c-23 -24 -43 -35 -62 -35
-31 0 -37 20 -13 40 8 7 25 39 37 73 20 56 25 61 76 84 37 17 63 23 83 19 19
-3 28 -2 24 4 -3 6 -13 10 -21 10 -9 0 -14 3 -12 8 60 126 87 192 78 192 -4 0
-17 -14 -28 -31 l-19 -31 -6 45 c-3 24 -25 79 -47 123 -79 152 -77 263 4 403
25 43 48 93 52 112 5 33 5 33 -8 9 -21 -38 -54 -38 -78 2 -15 25 -20 50 -20
110 0 71 2 78 26 97 31 25 35 25 56 9z m-1579 -100 c26 -34 53 -106 44 -115
-3 -2 -11 5 -17 18 -7 12 -31 42 -53 66 -33 36 -38 46 -26 54 22 13 26 12 52
-23z m1023 21 c3 -6 -7 -25 -23 -42 -17 -18 -39 -47 -49 -64 -10 -18 -22 -33
-27 -33 -18 0 22 90 56 128 23 25 33 27 43 11z m-566 -34 c10 -12 10 -42 2
-139 -11 -128 -29 -183 -72 -226 -22 -22 -12 -25 37 -11 21 6 35 5 42 -2 15
-15 14 -90 -1 -107 -11 -12 -10 -12 4 -2 11 9 18 10 23 2 15 -24 22 -7 8 21
-11 23 -13 39 -6 62 10 33 17 36 77 21 l28 -7 -31 43 c-39 54 -52 100 -61 225
-6 83 -5 103 8 118 18 21 73 22 111 3 37 -20 99 -89 107 -121 11 -46 -2 -129
-29 -183 -15 -30 -27 -55 -27 -56 0 -2 11 -1 25 1 19 4 25 0 31 -20 8 -34 0
-53 -65 -166 -57 -98 -78 -115 -135 -109 -23 2 -32 9 -34 26 -5 30 -22 28 -22
-3 0 -22 -4 -25 -39 -25 -71 0 -84 11 -150 127 -33 59 -61 117 -61 127 0 32
29 57 51 45 24 -12 24 -4 0 30 -32 45 -54 126 -47 174 8 53 33 91 87 134 32
26 51 33 84 33 26 0 48 -6 55 -15z m-676 -26 c11 -18 49 -64 86 -103 88 -93
92 -102 80 -168 -6 -29 -9 -99 -8 -155 3 -95 1 -104 -19 -118 -15 -10 -23 -30
-28 -67 -4 -29 -14 -65 -21 -80 -8 -15 -14 -37 -14 -48 0 -12 -14 -63 -31
-113 -25 -71 -29 -94 -21 -108 9 -14 7 -32 -6 -76 l-18 -58 -89 2 -90 1 -33
64 c-28 53 -43 70 -84 94 -98 57 -94 132 18 319 31 52 62 112 70 132 16 46 18
154 4 221 l-11 48 69 71 c38 39 79 92 93 121 13 28 26 51 29 52 3 0 14 -14 24
-31z m1457 -11 c42 -82 107 -158 167 -194 1 -1 -2 -23 -8 -50 -6 -27 -11 -84
-11 -126 -1 -86 14 -129 83 -237 82 -130 104 -205 77 -263 -5 -13 -33 -36 -61
-53 -54 -32 -56 -35 -87 -107 l-20 -48 -65 -2 c-36 -1 -78 -2 -93 -2 -23 -1
-28 5 -45 54 -15 43 -16 60 -7 76 9 17 6 36 -16 95 -15 41 -29 92 -31 113 -2
22 -10 46 -18 55 -8 9 -17 44 -21 77 -5 49 -12 67 -32 84 -25 22 -26 25 -20
112 3 50 2 114 -4 143 -13 70 -4 89 87 186 41 45 80 92 86 105 6 13 13 24 14
24 2 0 13 -19 25 -42z m-1330 -45 c13 -16 12 -17 -3 -4 -10 7 -18 15 -18 17 0
8 8 3 21 -13z m1173 2 c-4 -8 -11 -15 -16 -15 -6 0 -5 6 2 15 7 8 14 15 16 15
2 0 1 -7 -2 -15z m-954 -352 c0 -29 -3 -53 -7 -53 -3 0 -22 12 -41 26 -62 48
-73 109 -35 192 l16 33 33 -73 c24 -53 34 -87 34 -125z m820 82 c0 -51 -27
-95 -75 -124 l-38 -22 5 59 c3 32 17 83 31 113 13 30 28 63 32 74 6 18 10 15
26 -20 10 -22 19 -58 19 -80z m-1669 -94 c2 -44 -2 -62 -24 -105 l-22 -41 -8
49 c-6 35 -3 63 9 104 15 52 17 55 30 37 8 -10 15 -30 15 -44z m2464 -5 c4
-17 5 -56 3 -86 l-3 -55 -27 56 c-32 64 -32 61 -17 114 10 37 12 38 25 20 8
-10 16 -32 19 -49z m-1715 -111 c14 -4 91 -38 171 -76 251 -118 330 -118 579
1 141 67 226 98 215 79 -4 -5 -12 -9 -19 -9 -7 0 -69 -28 -137 -61 -308 -152
-393 -154 -674 -16 -82 41 -161 79 -175 86 -26 11 -11 10 40 -4z m-1280 -48
c-66 -92 -111 -294 -113 -502 -1 -138 -14 -94 -23 81 -10 186 27 322 117 418
23 26 44 46 46 46 2 0 -10 -19 -27 -43z m3509 -16 c47 -59 81 -142 98 -239 14
-77 14 -102 2 -207 -8 -69 -15 -103 -16 -80 -20 325 -56 479 -131 559 -23 24
-24 27 -5 17 11 -6 35 -28 52 -50z m-3627 26 c-48 -51 -123 -268 -143 -417
-19 -134 -27 -144 -28 -35 -1 127 18 216 68 319 34 70 99 156 118 156 4 0 -3
-10 -15 -23z m3813 -132 c53 -107 65 -170 63 -320 0 -71 -3 -114 -5 -95 -18
184 -72 393 -129 500 l-34 65 35 -40 c20 -22 52 -71 70 -110z m-3945 68 c-70
-113 -100 -261 -100 -495 0 -170 13 -261 54 -373 14 -41 19 -62 10 -50 -23 30
-72 196 -85 287 -18 127 -7 333 25 441 29 96 55 154 93 205 35 47 37 39 3 -15z
m4019 -54 c40 -75 78 -223 87 -336 11 -158 -25 -371 -86 -500 -36 -78 -48 -84
-14 -8 56 129 69 204 69 415 0 155 -4 211 -19 275 -19 84 -65 195 -94 230 -17
20 -17 20 4 2 12 -10 36 -45 53 -78z m-3540 45 c35 -30 42 -53 9 -30 -70 50
-150 -9 -191 -139 -37 -120 -53 -279 -39 -401 7 -55 14 -110 17 -124 3 -14 -2
-5 -11 20 -22 65 -44 204 -44 282 0 149 59 328 127 388 44 39 90 40 132 4z
m3134 7 c39 -26 70 -74 102 -161 37 -100 46 -280 21 -413 -21 -111 -38 -154
-28 -72 4 33 7 121 6 195 -2 310 -95 479 -227 414 l-32 -15 37 35 c43 41 78
46 121 17z m-3503 -147 c-13 -39 -39 -245 -33 -262 6 -14 -38 -132 -49 -132
-3 0 -5 55 -3 123 3 132 26 230 66 281 26 33 32 29 19 -10z m3811 -63 c16 -42
23 -87 26 -176 7 -158 3 -174 -25 -111 -14 30 -24 78 -27 120 -6 78 -23 209
-32 241 -13 45 37 -18 58 -74z m-3414 -86 c28 -20 69 -146 43 -130 -5 3 -10
14 -10 24 0 25 -25 44 -49 36 -59 -18 -52 -235 8 -235 11 0 23 5 26 10 13 21
25 9 14 -12 -16 -31 -30 -38 -51 -27 -43 23 -67 125 -49 210 13 57 9 68 -14
49 -30 -25 -12 33 23 73 19 21 31 21 59 2z m3023 -5 c11 -11 20 -24 20 -29 0
-5 3 -16 6 -25 4 -11 0 -16 -14 -16 -18 0 -20 -3 -11 -32 21 -76 2 -186 -39
-218 -23 -19 -26 -19 -44 -4 -17 17 -25 44 -11 44 3 0 14 -7 23 -15 15 -14 19
-13 36 6 14 16 20 39 22 98 3 85 -11 124 -46 129 -18 3 -26 -4 -38 -33 -20
-49 -28 -39 -13 19 12 49 48 96 74 96 8 0 24 -9 35 -20z m37 -142 c-2 -13 -4
-3 -4 22 0 25 2 35 4 23 2 -13 2 -33 0 -45z m-3717 12 l0 -40 -190 0 c-206 0
-204 -1 -178 55 l11 25 179 0 178 0 0 -40z m561 3 c-4 -28 -6 -32 -9 -15 -3
22 3 52 11 52 1 0 1 -17 -2 -37z m4074 27 c4 -6 10 -24 15 -40 l9 -30 -195 0
-194 0 0 40 0 40 179 0 c113 0 182 -4 186 -10z m-5025 -34 c0 -27 -16 -36 -66
-36 -55 0 -64 6 -42 28 11 11 108 18 108 8z m5168 -18 c3 -15 -5 -18 -52 -18
-50 0 -56 2 -56 21 0 18 5 20 52 17 41 -2 54 -7 56 -20z m-3916 -22 c9 -19 14
-37 11 -40 -4 -3 -55 -6 -115 -6 -117 0 -117 0 -102 58 6 21 11 22 98 22 l91
0 17 -34z m173 20 c16 -11 17 -19 9 -46 -12 -43 -28 -47 -59 -16 -29 29 -31
39 -9 60 19 20 35 20 59 2z m99 -2 c20 -19 20 -18 1 -54 -9 -17 -22 -30 -30
-30 -29 0 -59 73 -38 93 12 13 51 7 67 -9z m2070 10 c19 -7 20 -24 5 -58 -16
-35 -40 -41 -61 -16 -39 48 -2 96 56 74z m97 -4 c17 0 9 -44 -13 -67 -27 -29
-44 -29 -52 0 -15 55 1 83 42 71 8 -2 18 -4 23 -4z m317 -32 l3 -38 -104 0
c-57 0 -106 3 -109 6 -3 3 -1 21 5 40 l11 35 95 -3 96 -3 3 -37z m-2679 -5
c13 -45 5 -60 -20 -37 -26 24 -25 74 2 74 5 0 13 -16 18 -37z m2431 -20 c-31
-55 -54 -30 -30 33 10 26 12 26 28 10 15 -15 15 -19 2 -43z m-357 11 l5 -26
-359 7 c-238 5 -363 4 -371 -3 -16 -12 -288 -12 -288 1 0 6 -140 6 -369 2
l-369 -8 5 27 5 26 868 0 868 0 5 -26z m-3013 1 c0 -13 -27 -15 -185 -15 -102
0 -188 0 -192 -1 -4 0 -9 4 -11 10 -2 7 40 11 120 14 68 1 156 4 196 5 58 2
72 -1 72 -13z m4587 5 c42 0 73 -4 73 -10 0 -6 -72 -10 -195 -10 -175 0 -195
2 -195 17 0 14 13 15 122 10 66 -4 154 -7 195 -7z m-4987 -20 c0 -5 -25 -10
-55 -10 -30 0 -55 5 -55 10 0 6 25 10 55 10 30 0 55 -4 55 -10z m5180 0 c0 -5
-22 -10 -49 -10 -28 0 -53 5 -56 10 -4 6 15 10 49 10 31 0 56 -4 56 -10z
m-3983 -107 c-3 -10 -5 -4 -5 12 0 17 2 24 5 18 2 -7 2 -21 0 -30z m66 5 c23
-56 39 -62 151 -65 78 -1 105 2 117 13 11 10 19 12 24 5 3 -6 17 -11 31 -11
20 0 29 9 45 45 l20 45 69 0 69 0 -13 -37 c-24 -67 -65 -255 -82 -372 -21
-150 -24 -401 -5 -425 8 -9 12 -18 10 -21 -3 -2 -50 18 -104 46 -121 61 -321
194 -430 285 l-81 68 32 48 c31 46 74 146 74 171 0 7 -12 -15 -25 -48 -50
-122 -133 -205 -206 -205 -33 0 -47 7 -82 41 -31 31 -33 35 -9 15 36 -28 98
-35 144 -17 41 16 90 74 125 147 31 65 73 226 73 282 0 36 37 29 53 -10z
m2182 -10 c21 -45 53 -60 79 -39 10 8 17 7 25 -3 10 -11 36 -15 112 -14 108 2
125 10 148 71 7 16 18 27 30 27 16 0 21 -12 31 -72 29 -171 99 -321 172 -366
53 -33 114 -29 169 9 l44 30 -48 -45 c-52 -49 -48 -55 27 -35 22 6 56 14 74
19 39 10 34 -3 -11 -26 -25 -14 -49 -15 -119 -10 -49 3 -101 12 -117 20 -50
26 -118 112 -147 186 -15 39 -29 69 -31 67 -9 -9 43 -132 75 -179 l38 -53 -56
-48 c-131 -115 -307 -235 -462 -313 -48 -24 -90 -44 -92 -44 -3 0 2 17 11 38
31 73 1 412 -56 648 -16 65 -34 131 -40 147 l-11 27 68 0 68 0 19 -42z m-882
-390 c19 -59 73 -146 129 -207 31 -33 40 -53 54 -118 16 -80 48 -164 84 -226
l21 -35 -28 -6 c-62 -14 -380 -19 -477 -7 -55 6 -102 13 -104 16 -2 2 8 23 21
47 31 53 73 176 83 243 6 41 16 60 55 103 45 49 129 198 129 228 0 31 17 11
33 -38z m-1703 -52 l55 -14 -60 -1 c-43 -1 -69 5 -92 19 -54 33 -49 32 97 -4z
m270 -58 c144 -128 343 -255 540 -344 490 -221 1020 -252 1521 -88 276 91 587
270 777 448 l52 49 43 -18 c23 -11 44 -20 47 -22 7 -6 -120 -120 -215 -193
-323 -247 -716 -406 -1107 -449 -211 -24 -492 -10 -698 34 -334 70 -691 240
-950 453 -107 88 -175 150 -170 154 11 8 75 37 83 37 5 1 39 -27 77 -61z"/>
<path d="M2873 5705 c-842 -113 -1557 -627 -1933 -1390 -176 -356 -260 -717
-260 -1121 0 -270 21 -446 83 -698 l32 -130 14 37 14 37 103 0 103 0 -13 38
c-52 147 -94 401 -102 617 -19 480 111 949 375 1352 374 570 980 948 1645
1024 105 12 112 15 168 56 32 24 63 43 69 43 6 0 40 -20 75 -45 43 -31 73 -45
95 -45 47 0 232 -29 329 -51 562 -129 1063 -482 1390 -979 138 -210 269 -524
319 -767 64 -309 67 -630 11 -933 -19 -100 -58 -255 -75 -292 -6 -17 1 -18 93
-18 112 0 126 -7 126 -66 0 -18 2 -31 5 -28 12 12 83 331 101 454 131 902
-195 1770 -881 2348 -326 274 -740 464 -1184 543 -154 28 -543 35 -702 14z"/>
<path d="M3932 5143 c-13 -24 -73 -225 -69 -230 2 -1 24 51 49 117 25 66 42
123 37 126 -4 2 -12 -3 -17 -13z"/>
<path d="M2438 5125 c-4 -17 0 -41 8 -58 8 -15 12 -31 10 -36 -3 -5 10 -42 28
-83 19 -40 38 -86 41 -101 4 -15 11 -27 15 -27 4 0 11 -11 14 -25 4 -14 11
-25 16 -25 5 0 5 12 -1 30 -6 17 -14 30 -18 30 -12 0 -32 76 -25 96 4 14 3 15
-4 6 -7 -11 -12 -6 -21 19 -15 44 -13 61 4 24 19 -41 18 -28 -1 28 -9 26 -20
45 -25 41 -5 -3 -6 1 -4 9 3 7 -3 33 -13 58 l-19 44 -5 -30z"/>
<path d="M3760 5113 c0 -17 5 -35 10 -38 13 -8 13 35 0 55 -7 11 -10 7 -10
-17z"/>
<path d="M3812 5115 c0 -16 2 -22 5 -12 2 9 2 23 0 30 -3 6 -5 -1 -5 -18z"/>
<path d="M3885 5128 c-9 -30 -34 -153 -31 -156 3 -3 56 152 56 164 0 10 -21 3
-25 -8z"/>
<path d="M3959 5114 c-5 -15 -8 -29 -5 -31 2 -2 8 10 14 26 13 38 5 41 -9 5z"/>
<path d="M3831 5114 c0 -11 3 -14 6 -6 3 7 2 16 -1 19 -3 4 -6 -2 -5 -13z"/>
<path d="M2427 5065 c9 -19 18 -33 21 -31 4 5 -26 66 -33 66 -3 0 3 -16 12
-35z"/>
<path d="M2401 5075 c0 -5 11 -30 24 -55 13 -25 24 -40 24 -35 0 6 -11 30 -24
55 -13 25 -24 41 -24 35z"/>
<path d="M3931 5037 c-18 -46 -71 -208 -71 -215 1 -16 20 31 54 132 21 59 36
110 34 112 -2 2 -10 -11 -17 -29z"/>
<path d="M2297 5040 c4 -17 3 -21 -6 -16 -8 5 -7 -4 3 -29 19 -44 19 -48 6
-40 -5 3 -2 -7 8 -24 18 -31 30 -34 17 -4 -4 10 -9 25 -10 33 -1 8 -5 26 -8
40 -6 20 -4 19 7 -5 8 -16 24 -52 36 -79 11 -27 22 -47 25 -44 2 2 -12 42 -32
89 -36 85 -57 121 -46 79z"/>
<path d="M2370 5054 c0 -6 7 -19 16 -30 14 -18 14 -18 3 6 -14 31 -19 36 -19
24z"/>
<path d="M3731 5024 c0 -11 3 -14 6 -6 3 7 2 16 -1 19 -3 4 -6 -2 -5 -13z"/>
<path d="M3937 4978 c-15 -34 -25 -63 -23 -65 1 -2 15 24 30 58 15 33 26 62
24 65 -3 2 -17 -24 -31 -58z"/>
<path d="M3954 4946 c-24 -51 -44 -102 -44 -112 1 -11 9 1 19 26 10 25 32 75
49 113 17 37 29 67 26 67 -3 0 -25 -42 -50 -94z"/>
<path d="M2250 5025 c0 -5 9 -21 20 -35 11 -14 20 -20 20 -15 0 6 -9 21 -20
35 -11 14 -20 21 -20 15z"/>
<path d="M4032 5018 c-14 -18 -46 -85 -35 -73 14 15 55 85 50 85 -2 0 -9 -6
-15 -12z"/>
<path d="M4082 4943 c-18 -36 -30 -68 -27 -71 2 -3 19 25 36 63 39 87 33 93
-9 8z"/>
<path d="M2226 4977 c3 -10 9 -15 12 -12 3 3 0 11 -7 18 -10 9 -11 8 -5 -6z"/>
<path d="M4126 4973 c-6 -14 -5 -15 5 -6 7 7 10 15 7 18 -3 3 -9 -2 -12 -12z"/>
<path d="M4026 4903 c-33 -52 -49 -92 -28 -67 13 14 73 124 68 124 -3 0 -21
-26 -40 -57z"/>
<path d="M4115 4920 c-10 -11 -16 -22 -14 -24 2 -2 12 7 22 20 22 29 17 32 -8
4z"/>
<path d="M2416 4865 c6 -31 11 -41 18 -34 2 2 -2 18 -10 34 l-14 30 6 -30z"/>
<path d="M3836 4793 c-6 -14 -5 -15 5 -6 7 7 10 15 7 18 -3 3 -9 -2 -12 -12z"/>
<path d="M1389 4091 c6 -10 34 -37 62 -60 66 -53 52 -54 -17 -1 -52 39 -71 49
-59 31 3 -5 1 -12 -5 -16 -17 -10 -2 -24 63 -57 34 -17 102 -58 152 -91 49
-33 82 -51 72 -40 -9 11 -46 40 -82 64 -36 24 -65 47 -65 52 0 4 12 -1 28 -11
15 -10 49 -34 76 -52 86 -59 43 -8 -82 98 -117 98 -166 126 -143 83z"/>
<path d="M4839 4089 c-23 -19 -23 -20 -2 -10 12 6 25 16 28 21 10 16 -1 12
-26 -11z"/>
<path d="M4855 4049 c-115 -98 -179 -163 -166 -167 9 -3 8 -9 -5 -23 -31 -34
-4 -20 59 31 34 28 105 73 157 100 52 27 87 49 78 50 -9 0 -18 7 -20 16 -2 12
-20 3 -73 -36 -65 -48 -53 -31 23 32 18 15 30 32 27 38 -10 16 -17 13 -80 -41z
m-71 -110 c-26 -29 -74 -62 -80 -56 -5 5 84 76 95 77 2 0 -4 -9 -15 -21z"/>
<path d="M4753 4020 c-18 -11 -69 -57 -112 -102 -84 -86 -103 -119 -29 -50 24
22 61 54 83 70 48 35 113 102 99 102 -5 0 -24 -9 -41 -20z"/>
<path d="M1578 3997 c15 -16 52 -47 82 -68 30 -21 71 -51 90 -65 19 -15 -8 16
-60 68 -62 61 -104 94 -118 94 -21 0 -21 -1 6 -29z"/>
<path d="M4945 3980 c-60 -41 -82 -49 -69 -29 4 7 -7 4 -24 -6 -17 -10 -28
-23 -25 -29 4 -5 -1 -7 -11 -3 -9 4 -15 3 -12 -2 3 -5 -1 -12 -10 -15 -9 -4
-15 -9 -12 -11 3 -3 43 12 89 34 46 21 92 41 102 45 10 3 15 11 12 17 -4 5 1
17 11 24 38 29 7 13 -51 -25z m-75 -44 c0 -2 -7 -7 -16 -10 -8 -3 -12 -2 -9 4
6 10 25 14 25 6z"/>
<path d="M1337 3993 c-15 -14 -4 -21 71 -48 42 -16 95 -37 117 -47 l40 -19
-30 25 c-16 14 -43 30 -60 36 -16 6 -51 22 -78 35 -53 28 -51 27 -60 18z"/>
<path d="M1739 3833 c12 -23 29 -38 37 -31 2 3 -8 15 -22 29 -25 23 -26 23
-15 2z"/>
<path d="M4589 3823 l-24 -28 28 24 c25 23 32 31 24 31 -2 0 -14 -12 -28 -27z"/>
<path d="M1188 3244 c-19 -18 -3 -23 80 -27 l87 -3 -107 -2 c-64 -1 -108 -6
-108 -12 0 -6 73 -10 199 -10 151 0 209 -4 241 -15 24 -8 45 -13 48 -10 7 7
-44 25 -105 37 -29 6 -53 14 -53 18 0 4 -46 10 -102 14 -57 4 -119 9 -138 12
-19 3 -38 2 -42 -2z"/>
<path d="M5065 3244 c-11 -2 -67 -9 -125 -16 -104 -13 -104 -13 -50 -19 55 -6
55 -6 -20 -7 -75 -2 -145 -16 -154 -31 -3 -4 18 -2 47 6 34 9 115 13 244 13
122 0 193 4 193 10 0 6 -26 11 -57 12 -36 1 -45 3 -25 5 19 3 32 10 32 19 0
13 -31 17 -85 8z"/>
<path d="M1207 3153 c-33 -2 -55 -8 -52 -14 4 -5 17 -9 31 -9 13 0 24 -4 24
-10 0 -5 16 -10 36 -10 55 0 258 31 269 41 9 9 -180 10 -308 2z"/>
<path d="M4882 3139 c48 -10 123 -22 167 -27 72 -7 80 -6 84 10 3 11 15 19 34
19 71 4 -107 17 -232 17 l-140 0 87 -19z"/>
<path d="M3270 4884 c-30 -14 -63 -23 -72 -20 -19 4 -23 -10 -9 -33 6 -9 20
-12 45 -7 20 3 52 9 71 12 36 6 48 23 18 25 -10 0 -3 5 15 10 28 8 32 12 22
24 -16 20 -25 18 -90 -11z"/>
<path d="M2976 4891 c-4 -5 6 -14 21 -19 22 -8 24 -11 8 -11 -17 -1 -17 -3 -5
-11 8 -5 25 -10 37 -10 12 0 28 -6 34 -13 15 -15 67 -10 86 9 18 18 16 24 -7
24 -11 0 -43 9 -72 20 -57 22 -93 25 -102 11z"/>
<path d="M3131 4773 c0 -6 -4 -20 -7 -30 -5 -14 -4 -15 5 -7 7 7 11 20 8 30
-3 11 -5 14 -6 7z"/>
<path d="M2700 3950 c-8 -5 -10 -10 -5 -10 6 0 17 5 25 10 8 5 11 10 5 10 -5
0 -17 -5 -25 -10z"/>
<path d="M3620 3950 c8 -5 20 -10 25 -10 6 0 3 5 -5 10 -8 5 -19 10 -25 10 -5
0 -3 -5 5 -10z"/>
<path d="M3960 3306 c0 -2 8 -10 18 -17 15 -13 16 -12 3 4 -13 16 -21 21 -21
13z"/>
<path d="M835 1943 c17 -45 164 -280 234 -374 391 -524 955 -882 1591 -1009
223 -45 325 -53 578 -47 253 5 383 23 608 82 597 156 1163 565 1506 1086 62
94 158 259 158 271 0 4 -22 8 -48 8 l-48 0 -33 -62 c-91 -172 -262 -398 -421
-558 -407 -406 -931 -661 -1505 -731 -145 -18 -445 -15 -595 5 -741 99 -1390
506 -1807 1131 -33 50 -75 118 -94 152 l-34 63 -49 0 c-42 0 -47 -2 -41 -17z"/>
</g>
</svg>
